<svg xmlns="http://www.w3.org/2000/svg" xmlns:xlink="http://www.w3.org/1999/xlink" width="50" zoomAndPan="magnify" viewBox="0 0 37.5 37.499999" height="50" preserveAspectRatio="xMidYMid meet" version="1.0"><defs><clipPath id="0935f4b64f"><path d="M 4 4 L 33 4 L 33 33 L 4 33 Z M 4 4 " clip-rule="nonzero"/></clipPath><clipPath id="ad32bc624c"><path d="M 18.503906 -7.664062 L 44.671875 18.503906 L 18.503906 44.671875 L -7.664062 18.503906 Z M 18.503906 -7.664062 " clip-rule="nonzero"/></clipPath><clipPath id="42d9d1183b"><path d="M 18.503906 -7.664062 L 44.671875 18.503906 L 18.503906 44.671875 L -7.664062 18.503906 Z M 18.503906 -7.664062 " clip-rule="nonzero"/></clipPath></defs><g clip-path="url(#0935f4b64f)"><g clip-path="url(#ad32bc624c)"><g clip-path="url(#42d9d1183b)"><path fill="#ffffff" d="M 31.585938 26.828125 L 23.261719 18.503906 L 31.585938 10.175781 C 31.902344 9.863281 32.144531 9.496094 32.316406 9.085938 C 32.488281 8.671875 32.574219 8.246094 32.574219 7.796875 C 32.574219 7.351562 32.488281 6.921875 32.316406 6.511719 C 32.144531 6.097656 31.902344 5.734375 31.585938 5.417969 C 31.273438 5.105469 30.90625 4.859375 30.496094 4.691406 C 30.082031 4.519531 29.65625 4.433594 29.207031 4.433594 C 28.761719 4.433594 28.332031 4.519531 27.921875 4.691406 C 27.507812 4.859375 27.144531 5.105469 26.828125 5.417969 L 18.503906 13.746094 L 10.175781 5.417969 C 9.863281 5.105469 9.496094 4.859375 9.085938 4.691406 C 8.671875 4.519531 8.246094 4.433594 7.796875 4.433594 C 7.351562 4.433594 6.921875 4.519531 6.511719 4.691406 C 6.097656 4.859375 5.734375 5.105469 5.417969 5.417969 C 5.105469 5.734375 4.859375 6.097656 4.691406 6.511719 C 4.519531 6.921875 4.433594 7.351562 4.433594 7.796875 C 4.433594 8.246094 4.519531 8.671875 4.691406 9.085938 C 4.859375 9.496094 5.105469 9.863281 5.417969 10.175781 L 13.746094 18.503906 L 5.417969 26.828125 C 5.105469 27.144531 4.859375 27.507812 4.691406 27.921875 C 4.519531 28.332031 4.433594 28.761719 4.433594 29.207031 C 4.433594 29.65625 4.519531 30.082031 4.691406 30.496094 C 4.859375 30.90625 5.105469 31.273438 5.417969 31.585938 C 5.734375 31.902344 6.097656 32.144531 6.511719 32.316406 C 6.921875 32.488281 7.351562 32.574219 7.796875 32.574219 C 8.246094 32.574219 8.671875 32.488281 9.085938 32.316406 C 9.496094 32.144531 9.863281 31.902344 10.175781 31.585938 L 18.503906 23.261719 L 26.828125 31.585938 C 27.144531 31.902344 27.507812 32.144531 27.921875 32.316406 C 28.332031 32.488281 28.761719 32.574219 29.207031 32.574219 C 29.65625 32.574219 30.082031 32.488281 30.496094 32.316406 C 30.90625 32.144531 31.273438 31.902344 31.585938 31.585938 C 31.902344 31.273438 32.144531 30.90625 32.316406 30.496094 C 32.488281 30.082031 32.574219 29.65625 32.574219 29.207031 C 32.574219 28.761719 32.488281 28.332031 32.316406 27.921875 C 32.144531 27.507812 31.902344 27.144531 31.585938 26.828125 Z M 31.585938 26.828125 " fill-opacity="1" fill-rule="nonzero"/></g></g></g></svg>