<svg xmlns="http://www.w3.org/2000/svg" xmlns:xlink="http://www.w3.org/1999/xlink" width="500" zoomAndPan="magnify" viewBox="0 0 375 374.999991" height="500" preserveAspectRatio="xMidYMid meet" version="1.0"><defs><clipPath id="bef4ee2930"><path d="M 3 15.46875 L 371 15.46875 L 371 348 L 3 348 Z M 3 15.46875 " clip-rule="nonzero"/></clipPath></defs><g clip-path="url(#bef4ee2930)"><path fill="#19429e" d="M 256.4375 41.527344 L 198.007812 130.605469 C 196.882812 130.515625 195.761719 130.464844 194.632812 130.464844 L 176.246094 130.464844 C 174.898438 130.464844 173.546875 130.53125 172.195312 130.667969 L 141.230469 83.460938 C 142.851562 80.808594 143.714844 77.757812 143.714844 74.617188 C 143.714844 65.253906 136.125 57.667969 126.757812 57.667969 C 117.398438 57.667969 109.800781 65.257812 109.800781 74.617188 C 109.800781 83.980469 117.398438 91.574219 126.757812 91.574219 C 127.375 91.574219 127.984375 91.542969 128.597656 91.476562 L 157.335938 135.292969 C 148.125 140.3125 141.292969 148.757812 138.277344 158.660156 L 89.386719 158.660156 L 89.386719 158.71875 C 88.417969 158.71875 87.433594 158.804688 86.4375 158.988281 C 70.53125 161.90625 57.167969 167.492188 46.136719 174.953125 C 33.757812 183.324219 24.296875 194.054688 17.453125 206.042969 C 0.847656 235.121094 0.1875 271.703125 10.566406 299.652344 C 15.054688 311.757812 21.707031 322.515625 30.148438 330.71875 C 39.332031 339.640625 50.523438 345.480469 63.335938 346.859375 C 81.160156 348.777344 101.230469 341.894531 121.875 322.214844 C 171.328125 261.566406 202.207031 262.640625 252.847656 322.207031 C 274.078125 342.453125 294.691406 349.152344 312.886719 346.664062 C 325.46875 344.941406 336.425781 338.914062 345.375 329.929688 C 353.5625 321.695312 360.03125 310.949219 364.402344 298.863281 C 374.816406 270.074219 373.613281 232.386719 355.511719 203.113281 C 348.574219 191.890625 339.21875 181.894531 327.171875 174.058594 C 316.71875 167.257812 304.289062 162.113281 289.726562 159.265625 C 288.328125 158.878906 286.859375 158.667969 285.335938 158.667969 L 232.59375 158.667969 C 229.515625 148.574219 222.472656 139.992188 213.003906 135.015625 L 269.207031 49.320312 C 269.710938 49.371094 270.222656 49.386719 270.734375 49.386719 C 280.09375 49.386719 287.683594 41.792969 287.683594 32.429688 C 287.683594 23.058594 280.101562 15.46875 270.734375 15.46875 C 261.367188 15.46875 253.777344 23.058594 253.777344 32.417969 C 253.777344 35.667969 254.703125 38.8125 256.4375 41.527344 M 257.667969 232.082031 C 253.839844 235.910156 253.839844 242.117188 257.667969 245.949219 C 261.5 249.769531 267.707031 249.769531 271.53125 245.949219 C 275.359375 242.117188 275.359375 235.910156 271.53125 232.082031 C 267.707031 228.257812 261.5 228.257812 257.667969 232.082031 Z M 276.84375 249.621094 C 273.015625 253.453125 273.015625 259.667969 276.84375 263.488281 C 280.667969 267.3125 286.878906 267.3125 290.707031 263.488281 C 294.53125 259.667969 294.53125 253.453125 290.707031 249.621094 C 286.878906 245.800781 280.667969 245.800781 276.84375 249.621094 Z M 271.535156 268.285156 C 267.707031 264.457031 261.503906 264.457031 257.675781 268.285156 C 253.847656 272.117188 253.847656 278.324219 257.675781 282.148438 C 261.503906 285.976562 267.714844 285.976562 271.535156 282.148438 C 275.367188 278.324219 275.367188 272.117188 271.535156 268.285156 Z M 94.726562 278.773438 L 112.121094 278.773438 L 112.121094 265.15625 L 125.734375 265.15625 L 125.734375 247.765625 L 112.121094 247.765625 L 112.121094 234.144531 L 94.726562 234.144531 L 94.726562 247.765625 L 81.105469 247.765625 L 81.105469 265.15625 L 94.726562 265.15625 Z M 238.679688 250.289062 C 234.855469 254.117188 234.855469 260.320312 238.679688 264.148438 C 242.507812 267.972656 248.714844 267.972656 252.546875 264.148438 C 256.367188 260.320312 256.367188 254.117188 252.546875 250.289062 C 248.714844 246.460938 242.507812 246.460938 238.679688 250.289062 Z M 41.324219 288.238281 C 33.9375 268.347656 34.300781 242.5 45.902344 222.175781 C 50.300781 214.46875 56.421875 207.550781 64.464844 202.113281 C 71.621094 197.265625 80.308594 193.5625 90.667969 191.464844 L 284.058594 191.464844 C 294.023438 193.488281 302.414062 196.957031 309.359375 201.472656 C 317.164062 206.554688 323.21875 213.019531 327.703125 220.273438 C 340.316406 240.667969 341.046875 267.246094 333.644531 287.703125 C 308.816406 356.386719 67.75 359.53125 41.324219 288.238281 Z M 41.324219 288.238281 " fill-opacity="1" fill-rule="nonzero"/><path fill="#ffffff" d="M 256.4375 41.527344 L 198.007812 130.605469 C 196.882812 130.515625 195.761719 130.464844 194.632812 130.464844 L 176.246094 130.464844 C 174.898438 130.464844 173.546875 130.53125 172.195312 130.667969 L 141.230469 83.460938 C 142.851562 80.808594 143.714844 77.757812 143.714844 74.617188 C 143.714844 65.253906 136.125 57.667969 126.757812 57.667969 C 117.398438 57.667969 109.800781 65.257812 109.800781 74.617188 C 109.800781 83.980469 117.398438 91.574219 126.757812 91.574219 C 127.375 91.574219 127.984375 91.542969 128.597656 91.476562 L 157.335938 135.292969 C 148.125 140.3125 141.292969 148.757812 138.277344 158.660156 L 89.386719 158.660156 L 89.386719 158.71875 C 88.417969 158.71875 87.433594 158.804688 86.4375 158.988281 C 70.53125 161.90625 57.167969 167.492188 46.136719 174.953125 C 33.757812 183.324219 24.296875 194.054688 17.453125 206.042969 C 0.847656 235.121094 0.1875 271.703125 10.566406 299.652344 C 15.054688 311.757812 21.707031 322.515625 30.148438 330.71875 C 39.332031 339.640625 50.523438 345.480469 63.335938 346.859375 C 81.160156 348.777344 101.230469 341.894531 121.875 322.214844 C 171.328125 261.566406 202.207031 262.640625 252.847656 322.207031 C 274.078125 342.453125 294.691406 349.152344 312.886719 346.664062 C 325.46875 344.941406 336.425781 338.914062 345.375 329.929688 C 353.5625 321.695312 360.03125 310.949219 364.402344 298.863281 C 374.816406 270.074219 373.613281 232.386719 355.511719 203.113281 C 348.574219 191.890625 339.21875 181.894531 327.171875 174.058594 C 316.71875 167.257812 304.289062 162.113281 289.726562 159.265625 C 288.328125 158.878906 286.859375 158.667969 285.335938 158.667969 L 232.59375 158.667969 C 229.515625 148.574219 222.472656 139.992188 213.003906 135.015625 L 269.207031 49.320312 C 269.710938 49.371094 270.222656 49.386719 270.734375 49.386719 C 280.09375 49.386719 287.683594 41.792969 287.683594 32.429688 C 287.683594 23.058594 280.101562 15.46875 270.734375 15.46875 C 261.367188 15.46875 253.777344 23.058594 253.777344 32.417969 C 253.777344 35.667969 254.703125 38.8125 256.4375 41.527344 M 257.667969 232.082031 C 253.839844 235.910156 253.839844 242.117188 257.667969 245.949219 C 261.5 249.769531 267.707031 249.769531 271.53125 245.949219 C 275.359375 242.117188 275.359375 235.910156 271.53125 232.082031 C 267.707031 228.257812 261.5 228.257812 257.667969 232.082031 Z M 276.84375 249.621094 C 273.015625 253.453125 273.015625 259.667969 276.84375 263.488281 C 280.667969 267.3125 286.878906 267.3125 290.707031 263.488281 C 294.53125 259.667969 294.53125 253.453125 290.707031 249.621094 C 286.878906 245.800781 280.667969 245.800781 276.84375 249.621094 Z M 271.535156 268.285156 C 267.707031 264.457031 261.503906 264.457031 257.675781 268.285156 C 253.847656 272.117188 253.847656 278.324219 257.675781 282.148438 C 261.503906 285.976562 267.714844 285.976562 271.535156 282.148438 C 275.367188 278.324219 275.367188 272.117188 271.535156 268.285156 Z M 94.726562 278.773438 L 112.121094 278.773438 L 112.121094 265.15625 L 125.734375 265.15625 L 125.734375 247.765625 L 112.121094 247.765625 L 112.121094 234.144531 L 94.726562 234.144531 L 94.726562 247.765625 L 81.105469 247.765625 L 81.105469 265.15625 L 94.726562 265.15625 Z M 238.679688 250.289062 C 234.855469 254.117188 234.855469 260.320312 238.679688 264.148438 C 242.507812 267.972656 248.714844 267.972656 252.546875 264.148438 C 256.367188 260.320312 256.367188 254.117188 252.546875 250.289062 C 248.714844 246.460938 242.507812 246.460938 238.679688 250.289062 Z M 41.324219 288.238281 C 33.9375 268.347656 34.300781 242.5 45.902344 222.175781 C 50.300781 214.46875 56.421875 207.550781 64.464844 202.113281 C 71.621094 197.265625 80.308594 193.5625 90.667969 191.464844 L 284.058594 191.464844 C 294.023438 193.488281 302.414062 196.957031 309.359375 201.472656 C 317.164062 206.554688 323.21875 213.019531 327.703125 220.273438 C 340.316406 240.667969 341.046875 267.246094 333.644531 287.703125 C 308.816406 356.386719 67.75 359.53125 41.324219 288.238281 Z M 41.324219 288.238281 " fill-opacity="1" fill-rule="nonzero"/></g></svg>