<svg xmlns="http://www.w3.org/2000/svg" xmlns:xlink="http://www.w3.org/1999/xlink" width="50" zoomAndPan="magnify" viewBox="0 0 37.5 37.499999" height="50" preserveAspectRatio="xMidYMid meet" version="1.0"><defs><clipPath id="de01de0c6c"><path d="M 0 1.6875 L 37 1.6875 L 37 9 L 0 9 Z M 0 1.6875 " clip-rule="nonzero"/></clipPath><clipPath id="f4067a8aa6"><path d="M 0 28 L 37 28 L 37 34.996094 L 0 34.996094 Z M 0 28 " clip-rule="nonzero"/></clipPath></defs><g clip-path="url(#de01de0c6c)"><path fill="#ffffff" d="M 3.371094 8.414062 L 33.636719 8.414062 C 34.082031 8.414062 34.511719 8.328125 34.921875 8.160156 C 35.335938 7.988281 35.699219 7.746094 36.015625 7.429688 C 36.328125 7.113281 36.574219 6.75 36.742188 6.339844 C 36.914062 5.925781 37 5.496094 37 5.050781 C 37 4.605469 36.914062 4.175781 36.742188 3.765625 C 36.574219 3.351562 36.328125 2.988281 36.015625 2.671875 C 35.699219 2.359375 35.335938 2.113281 34.921875 1.945312 C 34.511719 1.773438 34.082031 1.6875 33.636719 1.6875 L 3.371094 1.6875 C 2.925781 1.6875 2.496094 1.773438 2.082031 1.945312 C 1.671875 2.113281 1.308594 2.359375 0.992188 2.671875 C 0.675781 2.988281 0.433594 3.351562 0.261719 3.765625 C 0.09375 4.175781 0.0078125 4.605469 0.0078125 5.050781 C 0.0078125 5.496094 0.09375 5.925781 0.261719 6.339844 C 0.433594 6.75 0.675781 7.113281 0.992188 7.429688 C 1.308594 7.746094 1.671875 7.988281 2.082031 8.160156 C 2.496094 8.328125 2.925781 8.414062 3.371094 8.414062 Z M 3.371094 8.414062 " fill-opacity="1" fill-rule="nonzero"/></g><path fill="#ffffff" d="M 33.636719 15.140625 L 3.371094 15.140625 C 2.925781 15.140625 2.496094 15.226562 2.082031 15.394531 C 1.671875 15.566406 1.308594 15.808594 0.992188 16.125 C 0.675781 16.441406 0.433594 16.804688 0.261719 17.214844 C 0.09375 17.628906 0.0078125 18.058594 0.0078125 18.503906 C 0.0078125 18.949219 0.09375 19.378906 0.261719 19.789062 C 0.433594 20.203125 0.675781 20.566406 0.992188 20.882812 C 1.308594 21.195312 1.671875 21.441406 2.082031 21.609375 C 2.496094 21.78125 2.925781 21.867188 3.371094 21.867188 L 33.636719 21.867188 C 34.082031 21.867188 34.511719 21.78125 34.921875 21.609375 C 35.335938 21.441406 35.699219 21.195312 36.015625 20.882812 C 36.328125 20.566406 36.574219 20.203125 36.742188 19.789062 C 36.914062 19.378906 37 18.949219 37 18.503906 C 37 18.058594 36.914062 17.628906 36.742188 17.214844 C 36.574219 16.804688 36.328125 16.441406 36.015625 16.125 C 35.699219 15.808594 35.335938 15.566406 34.921875 15.394531 C 34.511719 15.226562 34.082031 15.140625 33.636719 15.140625 Z M 33.636719 15.140625 " fill-opacity="1" fill-rule="nonzero"/><g clip-path="url(#f4067a8aa6)"><path fill="#ffffff" d="M 33.636719 28.59375 L 3.371094 28.59375 C 2.925781 28.59375 2.496094 28.675781 2.082031 28.847656 C 1.671875 29.019531 1.308594 29.261719 0.992188 29.578125 C 0.675781 29.890625 0.433594 30.257812 0.261719 30.667969 C 0.09375 31.082031 0.0078125 31.507812 0.0078125 31.957031 C 0.0078125 32.402344 0.09375 32.832031 0.261719 33.242188 C 0.433594 33.652344 0.675781 34.019531 0.992188 34.332031 C 1.308594 34.648438 1.671875 34.890625 2.082031 35.0625 C 2.496094 35.234375 2.925781 35.316406 3.371094 35.316406 L 33.636719 35.316406 C 34.082031 35.316406 34.511719 35.234375 34.921875 35.0625 C 35.335938 34.890625 35.699219 34.648438 36.015625 34.332031 C 36.328125 34.019531 36.574219 33.652344 36.742188 33.242188 C 36.914062 32.832031 37 32.402344 37 31.957031 C 37 31.507812 36.914062 31.082031 36.742188 30.667969 C 36.574219 30.257812 36.328125 29.890625 36.015625 29.578125 C 35.699219 29.261719 35.335938 29.019531 34.921875 28.847656 C 34.511719 28.675781 34.082031 28.59375 33.636719 28.59375 Z M 33.636719 28.59375 " fill-opacity="1" fill-rule="nonzero"/></g></svg>