<svg width="46" height="46" viewBox="0 0 46 46" fill="none" xmlns="http://www.w3.org/2000/svg">
<path d="M22.9999 3.83333C12.6097 3.83333 3.83325 12.6098 3.83325 23C3.83325 33.3903 12.6097 42.1667 22.9999 42.1667C33.3902 42.1667 42.1666 33.3903 42.1666 23C42.1666 12.6098 33.3902 3.83333 22.9999 3.83333ZM22.9999 13.4167C26.31 13.4167 28.7499 15.8547 28.7499 19.1667C28.7499 22.4787 26.31 24.9167 22.9999 24.9167C19.6918 24.9167 17.2499 22.4787 17.2499 19.1667C17.2499 15.8547 19.6918 13.4167 22.9999 13.4167ZM13.2134 32.1463C14.9327 29.6163 17.8 27.9297 21.0833 27.9297H24.9166C28.2018 27.9297 31.0672 29.6163 32.7864 32.1463C30.3369 34.7683 26.862 36.4167 22.9999 36.4167C19.1378 36.4167 15.6629 34.7683 13.2134 32.1463Z" fill="white"/>
</svg>
